<?xml version="1.0" encoding="UTF-8"?>
<!DOCTYPE svg PUBLIC "-//W3C//DTD SVG 1.1//EN" "http://www.w3.org/Graphics/SVG/1.1/DTD/svg11.dtd">
<!-- Creator: CorelDRAW 2020 (64-Bit) -->
<svg xmlns="http://www.w3.org/2000/svg" xml:space="preserve" width="100%" height="100%" version="1.1" style="shape-rendering:geometricPrecision; text-rendering:geometricPrecision; image-rendering:optimizeQuality; fill-rule:evenodd; clip-rule:evenodd"
viewBox="0 0 10000 8500"
 xmlns:xlink="http://www.w3.org/1999/xlink"
 xmlns:xodm="http://www.corel.com/coreldraw/odm/2003">
 <defs>
  <style type="text/css">
   <![CDATA[
    .fil0 {fill:#373435}
    .fil1 {fill:#FEFEFE}
   ]]>
  </style>
 </defs>
 <g id="Capa_x0020_1">
  <metadata id="CorelCorpID_0Corel-Layer"/>
  <g id="_1889671212832">
   <path class="fil0" d="M1498.94 4102.71l0 362.89c10.13,18.89 43.95,365.83 53.21,424.92 61.06,389.18 181.52,754.52 345.33,1099.86 568.27,1198.05 1740.72,2040.49 3053.22,2221.25 68.69,9.46 142.21,18.49 214.66,23.58 43.49,3.06 199.46,7.46 226.1,15.87l286.76 0c28.35,-13.15 358.01,-36.48 427.96,-47.76 399.72,-64.51 736.16,-165.48 1094.67,-333.38 1179.87,-552.53 2043.49,-1676.62 2246.93,-2979.4l48.31 -418.33c0.61,-2.25 1.86,-5.05 2.4,-6.83 0.54,-1.76 1.5,-4.55 2.59,-6.68l0 -355.24c-7.41,-18.17 -35.04,-373.56 -44.63,-436.31 -64.3,-420.43 -162.13,-727.62 -331,-1107.43 -359.43,-808.42 -1112.3,-1562.01 -1913.37,-1924.91 -407.36,-184.55 -665.7,-263.39 -1108.8,-338.05 -116.78,-19.67 -375.38,-36.11 -406.18,-41.8 -20.13,-3.73 -8.35,-0.59 -19.34,-6.07l-324.95 0c-27.61,10.39 -369.2,34.34 -438.85,44.36 -365.88,52.69 -790.95,178.49 -1109.41,334.17 -145.48,71.13 -330.36,164.07 -463,255.78 -297.13,205.44 -400.82,272.71 -669.62,538.7 -494.15,488.99 -857.19,1116.19 -1048.13,1842.63 -55.01,209.3 -84.05,397.17 -105.51,610.61 -5.39,53.49 -3.66,186.58 -19.39,227.52l0.04 0.03z"/>
   <path class="fil1" d="M6783.4 2314.79c-12.61,32.23 -98.07,107.39 -126.88,135.75 -45.64,44.91 -50.6,134.01 -63.07,205.85 -7.39,42.6 -29.46,184.17 -42.95,218.76 -13.12,33.63 -1078.48,1086.61 -1192.02,1200.67l-536.19 533.65c-46.13,-21.74 -551.44,-557.69 -582.92,-570.24 -63.08,-25.16 -141.41,87.8 -166.29,114.77 -158.66,172.05 -253.9,284.73 -393.54,480.26 -273.42,382.84 -690.78,1228.16 -243.16,1695.65 209.63,218.92 568.06,234.94 907.72,127.89 492.78,-155.3 943.56,-520.02 1306.83,-864.81 23.14,-21.95 60.92,-46.73 48.28,-88.83 -9.31,-31 -527.53,-540.04 -575.35,-582.7 13.66,-35.12 221.77,-231.34 261.5,-271.75l97.48 -98.24c14.11,-13.04 20.61,-18.33 33.59,-32.01l265.12 -265.59c45.67,-49.04 95.27,-91.8 134.64,-134.76 80.11,-87.37 177.16,-174.32 264.8,-265.91l662.22 -660.98c42.37,-31.53 389.91,-74.43 435.59,-102.96 38.35,-23.96 98.75,-107.58 140.12,-132.41 28.76,11.27 126.19,138.66 259.84,50.39 81.15,-53.58 109.41,-171.33 40.94,-258.34 -28.05,-35.64 -57.07,-58.44 -88.4,-91.42 -33.17,-34.91 -57.2,-58.24 -94.04,-93.61l-368.13 -367.02c-37.09,-35.68 -51.72,-52.7 -89.48,-90.06 -36.17,-35.8 -69.1,-73.59 -94.52,-92.7 -141.96,-106.67 -327.88,25.89 -279.72,190.36 16.09,54.91 52.87,77.15 78,110.3l-0.01 0.03z"/>
   <path class="fil0" d="M7340.76 2882.96c-9.83,-28.05 -5.61,-19.62 -25.28,-40.57 -10.39,-11.07 -17.71,-16.81 -28.88,-27.87 -71.67,-70.88 -399.1,-406.28 -422.92,-416.59 -43.64,35.27 -135.43,119.8 -146.09,171.98l-53.46 281.48c-11.34,59.93 16.34,60.9 80.98,129.01 119.35,125.76 81.03,101.69 305.08,52.87 38.64,-8.42 156.45,-27.95 179.27,-42.57 31.1,-19.93 71.33,-82.83 111.31,-107.73l-0.01 0z"/>
   <path class="fil0" d="M3673.7 5719.8c14.34,-34.57 8.45,-169.7 12.93,-220.24 6.15,-69.5 20.43,-139.46 35.72,-203.01 28.37,-117.96 83.55,-248.07 139.87,-341 109.68,-181 187.83,-256.23 338.18,-380.17 64.59,-53.21 8.43,-140.6 -76.11,-76 -169.44,129.47 -313.68,306.18 -421.57,534.39 -51.41,108.7 -89.7,233.69 -110.98,370.96 -7.03,45.32 -36.22,290.63 -4.5,325.37 22.98,25.17 64.96,20.08 86.48,-10.32l-0.03 0.01z"/>
  </g>
 </g>
</svg>
