<?xml version="1.0" encoding="UTF-8"?>
<!DOCTYPE svg PUBLIC "-//W3C//DTD SVG 1.1//EN" "http://www.w3.org/Graphics/SVG/1.1/DTD/svg11.dtd">
<!-- Creator: CorelDRAW 2020 (64-Bit) -->
<svg xmlns="http://www.w3.org/2000/svg" xml:space="preserve" width="100%" height="100%" version="1.1" style="shape-rendering:geometricPrecision; text-rendering:geometricPrecision; image-rendering:optimizeQuality; fill-rule:evenodd; clip-rule:evenodd"
viewBox="0 0 8500 8500"
 xmlns:xlink="http://www.w3.org/1999/xlink"
 xmlns:xodm="http://www.corel.com/coreldraw/odm/2003">
 <defs>
  <style type="text/css">
   <![CDATA[
    .fil1 {fill:#FEFEFE}
    .fil0 {fill:black}
   ]]>
  </style>
 </defs>
 <g id="Capa_x0020_1">
  <metadata id="CorelCorpID_0Corel-Layer"/>
  <g id="_1889671212832">
   <path class="fil0" d="M220.94 4101.69l0 365.43c10.2,19.02 44.26,368.4 53.58,427.9 61.49,391.91 182.79,759.8 347.75,1107.56 572.25,1206.44 1752.91,2054.78 3074.6,2236.81 69.17,9.52 143.2,18.62 216.17,23.74 43.79,3.08 200.85,7.52 227.68,15.98l288.77 0c28.55,-13.24 360.52,-36.74 430.96,-48.09 402.52,-64.96 741.31,-166.64 1102.33,-335.72 1188.13,-556.4 2057.8,-1688.36 2262.67,-3000.26l48.65 -421.26c0.62,-2.27 1.87,-5.08 2.42,-6.88 0.55,-1.77 1.51,-4.58 2.61,-6.73l0 -357.72c-7.46,-18.3 -35.28,-376.18 -44.94,-439.37 -64.75,-423.37 -163.26,-732.72 -333.32,-1115.19 -361.94,-814.08 -1120.09,-1572.95 -1926.77,-1938.39 -410.21,-185.84 -670.37,-265.23 -1116.57,-340.42 -117.6,-19.81 -378.01,-36.36 -409.02,-42.09 -20.27,-3.76 -8.41,-0.59 -19.48,-6.11l-327.22 0c-27.8,10.46 -371.79,34.58 -441.93,44.67 -368.44,53.06 -796.49,179.74 -1117.19,336.51 -146.5,71.63 -332.67,165.22 -466.24,257.57 -299.21,206.87 -403.63,274.62 -674.31,542.47 -497.61,492.42 -863.19,1124.01 -1055.47,1855.54 -55.4,210.77 -84.64,399.95 -106.25,614.89 -5.43,53.86 -3.69,187.89 -19.52,229.11l0.04 0.03 0.01 0.02z"/>
   <path class="fil1" d="M5542.41 2301.25c-12.7,32.45 -98.76,108.15 -127.77,136.7 -45.96,45.22 -50.96,134.95 -63.51,207.29 -7.44,42.89 -29.67,185.46 -43.25,220.29 -13.21,33.87 -1086.04,1094.22 -1200.37,1209.08l-539.94 537.39c-46.45,-21.89 -555.3,-561.59 -587,-574.24 -63.52,-25.33 -142.4,88.41 -167.45,115.57 -159.77,173.26 -255.68,286.72 -396.3,483.62 -275.33,385.52 -695.62,1236.76 -244.86,1707.53 211.1,220.46 572.04,236.59 914.08,128.78 496.23,-156.39 950.17,-523.66 1315.98,-870.86 23.3,-22.11 61.35,-47.06 48.62,-89.45 -9.38,-31.22 -531.23,-543.82 -579.38,-586.78 13.76,-35.37 223.32,-232.96 263.33,-273.65l98.16 -98.93c14.21,-13.13 20.76,-18.46 33.83,-32.24l266.97 -267.45c45.99,-49.39 95.94,-92.44 135.59,-135.7 80.67,-87.98 178.4,-175.54 266.65,-267.78l666.85 -665.61c42.67,-31.75 392.65,-74.95 438.64,-103.68 38.62,-24.13 99.44,-108.33 141.1,-133.33 28.96,11.35 127.07,139.63 261.66,50.74 81.72,-53.96 110.18,-172.53 41.23,-260.15 -28.25,-35.89 -57.47,-58.85 -89.02,-92.06 -33.4,-35.15 -57.59,-58.65 -94.7,-94.26l-370.7 -369.59c-37.35,-35.93 -52.08,-53.07 -90.11,-90.69 -36.42,-36.05 -69.58,-74.11 -95.18,-93.35 -142.95,-107.42 -330.18,26.07 -281.68,191.7 16.2,55.29 53.24,77.69 78.54,111.07l-0.01 0.03 -0 0.02z"/>
   <path class="fil0" d="M6103.68 2873.4c-9.9,-28.24 -5.65,-19.76 -25.46,-40.85 -10.46,-11.15 -17.84,-16.93 -29.08,-28.06 -72.17,-71.38 -401.9,-409.13 -425.88,-419.51 -43.94,35.52 -136.37,120.64 -147.11,173.18l-53.83 283.45c-11.42,60.35 16.46,61.33 81.55,129.91 120.19,126.64 81.59,102.4 307.22,53.24 38.91,-8.48 157.55,-28.14 180.52,-42.87 31.31,-20.07 71.83,-83.41 112.09,-108.48l-0.01 0 -0 -0.01z"/>
   <path class="fil0" d="M2410.93 5730.11c14.44,-34.81 8.51,-170.89 13.02,-221.78 6.2,-69.99 20.57,-140.44 35.97,-204.43 28.57,-118.79 84.13,-249.81 140.85,-343.39 110.45,-182.27 189.14,-258.02 340.55,-382.83 65.04,-53.58 8.49,-141.59 -76.64,-76.53 -170.63,130.38 -315.88,308.32 -424.52,538.13 -51.77,109.46 -90.33,235.33 -111.76,373.56 -7.08,45.64 -36.47,292.67 -4.53,327.65 23.14,25.34 65.41,20.22 87.08,-10.39l-0.03 0.01 0.01 0.02z"/>
  </g>
 </g>
</svg>
