<?xml version="1.0" encoding="UTF-8"?>
<!DOCTYPE svg PUBLIC "-//W3C//DTD SVG 1.1//EN" "http://www.w3.org/Graphics/SVG/1.1/DTD/svg11.dtd">
<!-- Creator: CorelDRAW 2020 (64-Bit) -->
<svg xmlns="http://www.w3.org/2000/svg" xml:space="preserve" width="11in" height="8.5in" version="1.1" style="shape-rendering:geometricPrecision; text-rendering:geometricPrecision; image-rendering:optimizeQuality; fill-rule:evenodd; clip-rule:evenodd"
viewBox="0 0 11000 8500"
 xmlns:xlink="http://www.w3.org/1999/xlink"
 xmlns:xodm="http://www.corel.com/coreldraw/odm/2003">
 <defs>
  <style type="text/css">
   <![CDATA[
    .fil0 {fill:#373435}
    .fil1 {fill:#FEFEFE}
   ]]>
  </style>
 </defs>
 <g id="Capa_x0020_1">
  <metadata id="CorelCorpID_0Corel-Layer"/>
  <g id="_1889671212832">
   <path class="fil0" d="M2581.2 4142.54l0 264.73c7.39,13.78 32.06,266.87 38.82,309.98 44.54,283.91 132.42,550.42 251.92,802.35 414.55,873.98 1269.86,1488.54 2227.33,1620.41 50.11,6.9 103.74,13.49 156.59,17.2 31.73,2.23 145.51,5.44 164.94,11.58l209.19 0c20.68,-9.59 261.17,-26.61 312.2,-34.84 291.6,-47.06 537.03,-120.72 798.56,-243.2 860.72,-403.07 1490.73,-1223.1 1639.14,-2173.48l35.24 -305.17c0.44,-1.64 1.36,-3.68 1.75,-4.98 0.39,-1.28 1.1,-3.32 1.89,-4.87l0 -259.15c-5.4,-13.25 -25.56,-272.51 -32.56,-318.29 -46.91,-306.7 -118.28,-530.8 -241.47,-807.87 -262.2,-589.74 -811.43,-1139.49 -1395.81,-1404.22 -297.17,-134.63 -485.63,-192.14 -808.87,-246.61 -85.19,-14.35 -273.84,-26.34 -296.31,-30.49 -14.68,-2.72 -6.09,-0.43 -14.11,-4.43l-237.05 0c-20.14,7.58 -269.33,25.05 -320.14,32.36 -266.91,38.44 -577,130.21 -809.31,243.78 -106.13,51.89 -241,119.69 -337.76,186.59 -216.76,149.87 -292.4,198.94 -488.49,392.98 -360.48,356.72 -625.32,814.26 -764.61,1344.2 -40.13,152.68 -61.31,289.74 -76.97,445.44 -3.93,39.02 -2.67,136.11 -14.14,165.98z"/>
   <path class="fil1" d="M6436.22 2838.25c-9.2,23.51 -71.54,78.34 -92.56,99.03 -33.29,32.76 -36.91,97.76 -46.01,150.17 -5.39,31.08 -21.49,134.35 -31.33,159.59 -9.57,24.53 -786.75,792.68 -869.58,875.89l-391.15 389.3c-33.65,-15.86 -402.28,-406.83 -425.24,-415.99 -46.02,-18.35 -103.16,64.05 -121.31,83.73 -115.74,125.51 -185.22,207.71 -287.09,350.35 -199.46,279.28 -503.92,895.94 -177.38,1236.98 152.92,159.7 414.4,171.39 662.18,93.3 359.48,-113.29 688.33,-379.36 953.33,-630.88 16.88,-16.01 44.44,-34.09 35.22,-64.8 -6.79,-22.61 -384.83,-393.96 -419.72,-425.08 9.96,-25.62 161.78,-168.76 190.76,-198.24l71.11 -71.67c10.29,-9.51 15.03,-13.37 24.5,-23.35l193.41 -193.75c33.31,-35.78 69.5,-66.97 98.22,-98.31 58.44,-63.74 129.24,-127.17 193.17,-193.98l483.09 -482.19c30.91,-23 284.44,-54.29 317.76,-75.11 27.98,-17.48 72.04,-78.48 102.22,-96.59 20.98,8.22 92.05,101.15 189.55,36.76 59.2,-39.09 79.81,-124.99 29.87,-188.46 -20.46,-26 -41.63,-42.63 -64.49,-66.69 -24.2,-25.47 -41.73,-42.49 -68.6,-68.29l-268.55 -267.74c-27.06,-26.03 -37.73,-38.45 -65.27,-65.7 -26.39,-26.12 -50.41,-53.69 -68.95,-67.63 -103.56,-77.81 -239.19,18.89 -204.06,138.87 11.74,40.06 38.57,56.28 56.9,80.46z"/>
   <path class="fil0" d="M6842.81 3252.73c-7.17,-20.46 -4.09,-14.31 -18.44,-29.6 -7.58,-8.07 -12.92,-12.26 -21.07,-20.33 -52.28,-51.71 -291.14,-296.38 -308.52,-303.9 -31.84,25.73 -98.8,87.39 -106.57,125.46l-39 205.34c-8.27,43.72 11.92,44.43 59.07,94.11 87.07,91.74 59.11,74.18 222.56,38.57 28.19,-6.14 114.13,-20.39 130.78,-31.06 22.69,-14.54 52.03,-60.43 81.2,-78.59z"/>
   <path class="fil0" d="M4167.69 5322.21c10.46,-25.22 6.16,-123.8 9.43,-160.66 4.49,-50.7 14.9,-101.74 26.06,-148.1 20.7,-86.05 60.95,-180.97 102.04,-248.76 80.01,-132.04 137.02,-186.92 246.7,-277.33 47.12,-38.82 6.15,-102.57 -55.52,-55.44 -123.61,94.45 -228.83,223.36 -307.54,389.84 -37.5,79.3 -65.44,170.48 -80.96,270.62 -5.13,33.06 -26.42,212.01 -3.28,237.36 16.76,18.36 47.39,14.65 63.09,-7.53z"/>
  </g>
 </g>
</svg>
